<svg xmlns="http://www.w3.org/2000/svg" viewBox="0 0 800 600" width="800" height="600">
  <rect width="800" height="600" fill="#E8E8E8"/>
  <rect x="200" y="100" width="400" height="350" fill="#FFF" stroke="#333" stroke-width="2"/>
  <text x="400" y="140" font-family="Arial" font-size="18" fill="#333" text-anchor="middle" font-weight="bold">MAPA DE LOCALIZAÇÃO</text>
  <line x1="200" y1="200" x2="600" y2="200" stroke="#DDD" stroke-width="1"/>
  <line x1="200" y1="250" x2="600" y2="250" stroke="#DDD" stroke-width="1"/>
  <line x1="200" y1="300" x2="600" y2="300" stroke="#DDD" stroke-width="1"/>
  <line x1="200" y1="350" x2="600" y2="350" stroke="#DDD" stroke-width="1"/>
  <line x1="300" y1="150" x2="300" y2="400" stroke="#DDD" stroke-width="1"/>
  <line x1="400" y1="150" x2="400" y2="400" stroke="#DDD" stroke-width="1"/>
  <line x1="500" y1="150" x2="500" y2="400" stroke="#DDD" stroke-width="1"/>
  <rect x="350" y="250" width="100" height="80" fill="#FF6347" stroke="#333" stroke-width="2"/>
  <text x="400" y="295" font-family="Arial" font-size="12" fill="#FFF" text-anchor="middle" font-weight="bold">TERRENO</text>
  <circle cx="250" cy="180" r="15" fill="#4682B4"/>
  <text x="280" y="185" font-family="Arial" font-size="12" fill="#333">Escola</text>
  <circle cx="550" cy="180" r="15" fill="#228B22"/>
  <text x="580" y="185" font-family="Arial" font-size="12" fill="#333">Parque</text>
  <circle cx="250" cy="380" r="15" fill="#FFD700"/>
  <text x="280" y="385" font-family="Arial" font-size="12" fill="#333">Mercado</text>
  <circle cx="550" cy="380" r="15" fill="#FF69B4"/>
  <text x="580" y="385" font-family="Arial" font-size="12" fill="#333">Shopping</text>
  <text x="400" y="560" font-family="Arial" font-size="24" fill="#333" text-anchor="middle" font-weight="bold">Mapa da Região</text>
</svg>
